<svg width="55" height="44" viewBox="0 0 55 44" fill="none" xmlns="http://www.w3.org/2000/svg">
<path id="&#226;&#128;&#156; copy" d="M0.6 44V29.8C0.6 26.0667 0.933334 22.6 1.6 19.4C2.4 16.2 3.66667 13.0667 5.4 10C7.26667 6.8 9.66667 3.73333 12.6 0.799995L20.4 6.59999C18.1333 9.13332 16.3333 11.5333 15 13.8C13.6667 16.0667 12.7333 18.2667 12.2 20.4C11.6667 22.5333 11.4 24.7333 11.4 27L6.6 23.6H21V44H0.6ZM33.8 44V29.8C33.8 26.0667 34.1333 22.6 34.8 19.4C35.6 16.2 36.8667 13.0667 38.6 10C40.4667 6.8 42.8667 3.73333 45.8 0.799995L53.6 6.59999C51.3333 9.13332 49.5333 11.5333 48.2 13.8C46.8667 16.0667 45.9333 18.2667 45.4 20.4C44.8667 22.5333 44.6 24.7333 44.6 27L39.8 23.6H54.2V44H33.8Z" fill="#62E0D9"/>
</svg>
